<mxfile host="app.diagrams.net" modified="2021-12-07T02:30:38.940Z" agent="5.0 (Macintosh; Intel Mac OS X 10_15_7) AppleWebKit/537.36 (KHTML, like Gecko) Chrome/96.0.4664.55 Safari/537.36" etag="FMU71NvZi04cUVrTpKox" version="15.9.1" type="github">
  <diagram id="umGMzL6tHvmIoFokNVrz" name="Page-1">
    <mxGraphModel dx="1773" dy="614" grid="1" gridSize="10" guides="1" tooltips="1" connect="1" arrows="1" fold="1" page="1" pageScale="1" pageWidth="827" pageHeight="1169" math="0" shadow="0">
      <root>
        <mxCell id="0" />
        <mxCell id="1" parent="0" />
        <mxCell id="1LHTEHGJBZ7BMOOuPSXr-3" value="" style="edgeStyle=orthogonalEdgeStyle;rounded=0;orthogonalLoop=1;jettySize=auto;html=1;" edge="1" parent="1" source="1LHTEHGJBZ7BMOOuPSXr-1" target="1LHTEHGJBZ7BMOOuPSXr-2">
          <mxGeometry relative="1" as="geometry" />
        </mxCell>
        <mxCell id="1LHTEHGJBZ7BMOOuPSXr-1" value="&amp;nbsp; &amp;nbsp; &amp;nbsp; &amp;nbsp; &amp;nbsp;1.炮击文件&lt;br&gt;解析&amp;nbsp; 2.设备文件&lt;br&gt;&amp;nbsp; &amp;nbsp; &amp;nbsp; &amp;nbsp; &amp;nbsp; &amp;nbsp; &amp;nbsp;3.检波点文件" style="rounded=1;whiteSpace=wrap;html=1;fillColor=#e1d5e7;strokeColor=#9673a6;" vertex="1" parent="1">
          <mxGeometry x="160" y="100" width="130" height="60" as="geometry" />
        </mxCell>
        <mxCell id="1LHTEHGJBZ7BMOOuPSXr-5" value="" style="edgeStyle=orthogonalEdgeStyle;rounded=0;orthogonalLoop=1;jettySize=auto;html=1;fontColor=#FF0000;" edge="1" parent="1" source="1LHTEHGJBZ7BMOOuPSXr-2" target="1LHTEHGJBZ7BMOOuPSXr-4">
          <mxGeometry relative="1" as="geometry" />
        </mxCell>
        <mxCell id="1LHTEHGJBZ7BMOOuPSXr-2" value="得到queries:&lt;br&gt;&lt;font color=&quot;#ff0000&quot;&gt;&amp;lt;时间，设备列表&amp;gt;&lt;/font&gt;&lt;span style=&quot;color: rgb(255 , 0 , 0)&quot;&gt;集合&lt;/span&gt;" style="rounded=1;whiteSpace=wrap;html=1;fillColor=#e1d5e7;strokeColor=#9673a6;" vertex="1" parent="1">
          <mxGeometry x="160" y="202" width="130" height="60" as="geometry" />
        </mxCell>
        <mxCell id="1LHTEHGJBZ7BMOOuPSXr-7" value="" style="edgeStyle=orthogonalEdgeStyle;rounded=0;orthogonalLoop=1;jettySize=auto;html=1;fontColor=#000000;" edge="1" parent="1" source="1LHTEHGJBZ7BMOOuPSXr-4" target="1LHTEHGJBZ7BMOOuPSXr-6">
          <mxGeometry relative="1" as="geometry" />
        </mxCell>
        <mxCell id="1LHTEHGJBZ7BMOOuPSXr-4" value="&lt;font color=&quot;#000000&quot;&gt;对每个&lt;/font&gt;&lt;font color=&quot;#ff0000&quot;&gt;&amp;lt;时间，设备&amp;gt;&lt;/font&gt;&lt;br&gt;&lt;font color=&quot;#000000&quot;&gt;计算相应的&lt;/font&gt;&lt;font color=&quot;#ff0000&quot;&gt;&lt;br&gt;&amp;lt;文件，偏移量&amp;gt;&lt;/font&gt;" style="rounded=1;whiteSpace=wrap;html=1;fillColor=#b1ddf0;strokeColor=#10739e;" vertex="1" parent="1">
          <mxGeometry x="162.5" y="310" width="125" height="60" as="geometry" />
        </mxCell>
        <mxCell id="1LHTEHGJBZ7BMOOuPSXr-9" value="" style="edgeStyle=orthogonalEdgeStyle;rounded=0;orthogonalLoop=1;jettySize=auto;html=1;fontColor=#000000;" edge="1" parent="1" source="1LHTEHGJBZ7BMOOuPSXr-6" target="1LHTEHGJBZ7BMOOuPSXr-8">
          <mxGeometry relative="1" as="geometry" />
        </mxCell>
        <mxCell id="1LHTEHGJBZ7BMOOuPSXr-6" value="&lt;font color=&quot;#000000&quot;&gt;读取&lt;/font&gt;&lt;span style=&quot;color: rgb(0 , 0 , 0)&quot;&gt;相应&lt;/span&gt;&lt;font color=&quot;#000000&quot;&gt;文件内容&lt;/font&gt;" style="rounded=1;whiteSpace=wrap;html=1;fillColor=#b1ddf0;strokeColor=#10739e;" vertex="1" parent="1">
          <mxGeometry x="162.5" y="410" width="125" height="60" as="geometry" />
        </mxCell>
        <mxCell id="1LHTEHGJBZ7BMOOuPSXr-10" style="edgeStyle=orthogonalEdgeStyle;rounded=0;orthogonalLoop=1;jettySize=auto;html=1;entryX=1.031;entryY=0.633;entryDx=0;entryDy=0;entryPerimeter=0;fontColor=#000000;" edge="1" parent="1" source="1LHTEHGJBZ7BMOOuPSXr-8" target="1LHTEHGJBZ7BMOOuPSXr-2">
          <mxGeometry relative="1" as="geometry">
            <Array as="points">
              <mxPoint x="370" y="540" />
              <mxPoint x="370" y="240" />
            </Array>
          </mxGeometry>
        </mxCell>
        <mxCell id="1LHTEHGJBZ7BMOOuPSXr-11" value="循环" style="edgeLabel;html=1;align=center;verticalAlign=middle;resizable=0;points=[];fontColor=#000000;" vertex="1" connectable="0" parent="1LHTEHGJBZ7BMOOuPSXr-10">
          <mxGeometry x="0.8082" y="-3" relative="1" as="geometry">
            <mxPoint x="-7" y="-7" as="offset" />
          </mxGeometry>
        </mxCell>
        <mxCell id="1LHTEHGJBZ7BMOOuPSXr-8" value="追加写至炮集" style="rounded=1;whiteSpace=wrap;html=1;fillColor=#b1ddf0;strokeColor=#10739e;" vertex="1" parent="1">
          <mxGeometry x="162.5" y="510" width="125" height="60" as="geometry" />
        </mxCell>
        <mxCell id="1LHTEHGJBZ7BMOOuPSXr-14" style="edgeStyle=orthogonalEdgeStyle;rounded=0;orthogonalLoop=1;jettySize=auto;html=1;fontColor=#000000;dashed=1;" edge="1" parent="1" source="1LHTEHGJBZ7BMOOuPSXr-12">
          <mxGeometry relative="1" as="geometry">
            <mxPoint x="220" y="280" as="targetPoint" />
          </mxGeometry>
        </mxCell>
        <mxCell id="1LHTEHGJBZ7BMOOuPSXr-12" value="(时间，设备) -&amp;gt; 文件路径" style="rounded=1;whiteSpace=wrap;html=1;fillColor=#fff2cc;strokeColor=#d6b656;" vertex="1" parent="1">
          <mxGeometry x="-50" y="250" width="145" height="60" as="geometry" />
        </mxCell>
      </root>
    </mxGraphModel>
  </diagram>
</mxfile>
